TestUFO.ufo
<glyph name="zero" format="2">
  <advance width="595"/>
  <unicode hex="0030"/>
  <outline>
    <contour>
      <point x="297" y="125" type="curve" smooth="yes"/>
      <point x="237.16" y="125.0"/>
      <point x="187" y="161"/>
      <point x="187" y="315" type="curve" smooth="yes"/>
      <point x="187" y="469"/>
      <point x="237" y="505"/>
      <point x="297" y="505" type="curve" smooth="yes"/>
      <point x="357" y="505"/>
      <point x="408.0" y="469.0"/>
      <point x="408" y="315" type="curve" smooth="yes"/>
      <point x="408.0" y="161.0"/>
      <point x="356.9047619047619" y="125.0"/>
    </contour>
    <contour>
      <point x="297" y="-15" type="curve" smooth="yes"/>
      <point x="455.98850574712645" y="-15.0"/>
      <point x="563" y="98"/>
      <point x="563" y="315" type="curve" smooth="yes"/>
      <point x="563" y="532"/>
      <point x="455" y="645"/>
      <point x="297" y="645" type="curve" smooth="yes"/>
      <point x="139" y="645"/>
      <point x="32" y="532"/>
      <point x="32" y="315" type="curve" smooth="yes"/>
      <point x="32" y="98"/>
      <point x="138.0" y="-15.0"/>
    </contour>
  </outline>
</glyph>
<glyph name="one" format="2">
  <advance width="476"/>
  <unicode hex="0031"/>
  <outline>
    <contour>
      <point x="180" y="430" type="line"/>
      <point x="180" y="0" type="line"/>
      <point x="335" y="0" type="line"/>
      <point x="335" y="630" type="line"/>
      <point x="190" y="630" type="line"/>
      <point x="185" y="607" type="line" smooth="yes"/>
      <point x="176" y="567"/>
      <point x="154" y="553"/>
      <point x="106" y="549" type="curve" smooth="yes"/>
      <point x="61" y="545" type="line"/>
      <point x="61" y="430" type="line"/>
    </contour>
    <contour>
      <point x="56" y="0" type="line"/>
      <point x="459" y="0" type="line"/>
      <point x="459" y="129" type="line"/>
      <point x="56" y="129" type="line"/>
    </contour>
  </outline>
</glyph>
<glyph name="two" format="2">
  <advance width="538"/>
  <unicode hex="0032"/>
  <outline>
    <contour>
      <point x="491" y="449" type="curve" smooth="yes"/>
      <point x="491.0" y="578.0"/>
      <point x="398" y="645"/>
      <point x="272" y="645" type="curve" smooth="yes"/>
      <point x="135" y="645"/>
      <point x="41.99999718756496" y="568.9995528228277"/>
      <point x="41" y="410" type="curve"/>
      <point x="191" y="410" type="line"/>
      <point x="192.999863223399" y="481.9950760423633"/>
      <point x="220" y="514"/>
      <point x="269" y="514" type="curve" smooth="yes"/>
      <point x="317" y="514"/>
      <point x="338.0" y="485.0"/>
      <point x="338" y="449" type="curve" smooth="yes"/>
      <point x="338" y="315"/>
      <point x="34" y="311.03389830508473"/>
      <point x="34" y="42" type="curve" smooth="yes"/>
      <point x="34" y="0" type="line"/>
      <point x="498" y="0" type="line"/>
      <point x="498" y="134" type="line"/>
      <point x="97" y="134" type="line"/>
      <point x="189" y="65" type="line"/>
      <point x="189" y="80" type="line" smooth="yes"/>
      <point x="189" y="216.0"/>
      <point x="491" y="244"/>
    </contour>
  </outline>
</glyph>
<glyph name="three" format="2">
  <advance width="555"/>
  <unicode hex="0033"/>
  <outline>
    <contour>
      <point x="204" y="308" type="line"/>
      <point x="265" y="308" type="line" smooth="yes"/>
      <point x="435" y="308"/>
      <point x="504.0" y="383.0"/>
      <point x="504" y="484" type="curve" smooth="yes"/>
      <point x="504" y="588"/>
      <point x="420.0" y="645.0"/>
      <point x="292" y="645" type="curve" smooth="yes"/>
      <point x="145" y="645"/>
      <point x="54" y="566"/>
      <point x="48" y="433" type="curve"/>
      <point x="195" y="433" type="line"/>
      <point x="196" y="501"/>
      <point x="234" y="523"/>
      <point x="280" y="523" type="curve" smooth="yes"/>
      <point x="330" y="523"/>
      <point x="351" y="494"/>
      <point x="351" y="457" type="curve" smooth="yes"/>
      <point x="351" y="415"/>
      <point x="327" y="384"/>
      <point x="272" y="384" type="curve" smooth="yes"/>
      <point x="204" y="384" type="line"/>
    </contour>
    <contour>
      <point x="204" y="347" type="line"/>
      <point x="204" y="271" type="line"/>
      <point x="257" y="271" type="line" smooth="yes"/>
      <point x="340" y="271"/>
      <point x="367" y="235"/>
      <point x="367" y="186" type="curve" smooth="yes"/>
      <point x="367" y="136"/>
      <point x="333" y="106"/>
      <point x="283" y="106" type="curve" smooth="yes"/>
      <point x="231" y="106"/>
      <point x="192" y="127"/>
      <point x="185" y="201" type="curve"/>
      <point x="38" y="201" type="line"/>
      <point x="44" y="69"/>
      <point x="131" y="-15"/>
      <point x="283" y="-15" type="curve" smooth="yes"/>
      <point x="417" y="-15"/>
      <point x="520" y="56"/>
      <point x="520" y="177" type="curve" smooth="yes"/>
      <point x="520" y="284"/>
      <point x="442" y="347"/>
      <point x="250" y="347" type="curve" smooth="yes"/>
    </contour>
  </outline>
</glyph>
<glyph name="four" format="2">
  <advance width="599"/>
  <unicode hex="0034"/>
  <outline>
    <contour>
      <point x="329" y="630" type="line"/>
      <point x="36" y="252" type="line"/>
      <point x="36" y="128" type="line"/>
      <point x="583" y="128" type="line"/>
      <point x="583" y="258" type="line"/>
      <point x="129" y="258" type="line"/>
      <point x="183" y="221" type="line"/>
      <point x="402" y="528" type="line"/>
    </contour>
    <contour>
      <point x="329" y="0" type="line"/>
      <point x="484" y="0" type="line"/>
      <point x="484" y="630" type="line"/>
      <point x="329" y="630" type="line"/>
    </contour>
  </outline>
</glyph>
<glyph name="five" format="2">
  <advance width="585"/>
  <unicode hex="0035"/>
  <outline>
    <contour>
      <point x="137" y="500" type="line"/>
      <point x="498" y="500" type="line"/>
      <point x="498" y="630" type="line"/>
      <point x="137" y="630" type="line"/>
    </contour>
    <contour>
      <point x="181" y="345" type="curve"/>
      <point x="210" y="243" type="line"/>
      <point x="226" y="281"/>
      <point x="260" y="295"/>
      <point x="298" y="295" type="curve" smooth="yes"/>
      <point x="359" y="295"/>
      <point x="391" y="260"/>
      <point x="391" y="207" type="curve" smooth="yes"/>
      <point x="391" y="154"/>
      <point x="359" y="115"/>
      <point x="297" y="115" type="curve" smooth="yes"/>
      <point x="250" y="115"/>
      <point x="217" y="137"/>
      <point x="210" y="182" type="curve"/>
      <point x="50" y="182" type="line"/>
      <point x="77" y="45"/>
      <point x="167" y="-15"/>
      <point x="305" y="-15" type="curve" smooth="yes"/>
      <point x="444" y="-15"/>
      <point x="545" y="75"/>
      <point x="545" y="209" type="curve" smooth="yes"/>
      <point x="545" y="330"/>
      <point x="465" y="420"/>
      <point x="336" y="420" type="curve" smooth="yes"/>
      <point x="265" y="420"/>
      <point x="220" y="392"/>
    </contour>
    <contour>
      <point x="73" y="243" type="line"/>
      <point x="210" y="243" type="line"/>
      <point x="216" y="331" type="line"/>
      <point x="260" y="630" type="line"/>
      <point x="124" y="630" type="line"/>
    </contour>
  </outline>
</glyph>
<glyph name="six" format="2">
  <advance width="565"/>
  <unicode hex="0036"/>
  <outline>
    <contour>
      <point x="292" y="300" type="curve" smooth="yes"/>
      <point x="345.0" y="300.0"/>
      <point x="387" y="264"/>
      <point x="387" y="208" type="curve" smooth="yes"/>
      <point x="387" y="152"/>
      <point x="345" y="114"/>
      <point x="290" y="114" type="curve" smooth="yes"/>
      <point x="235.0" y="114.0"/>
      <point x="195.0" y="152.0"/>
      <point x="195" y="208" type="curve" smooth="yes"/>
      <point x="195" y="264"/>
      <point x="239" y="300"/>
    </contour>
    <contour>
      <point x="408" y="645" type="line"/>
      <point x="164" y="553"/>
      <point x="43.0" y="411.0"/>
      <point x="43" y="241" type="curve" smooth="yes"/>
      <point x="43.0" y="77.0"/>
      <point x="145" y="-15"/>
      <point x="285" y="-15" type="curve" smooth="yes"/>
      <point x="423" y="-15"/>
      <point x="536" y="79"/>
      <point x="536" y="212" type="curve" smooth="yes"/>
      <point x="536" y="328"/>
      <point x="449.0" y="415.0"/>
      <point x="326" y="415" type="curve" smooth="yes"/>
      <point x="258" y="415"/>
      <point x="190" y="385"/>
      <point x="161" y="326" type="curve"/>
      <point x="195" y="352" type="line"/>
      <point x="246.0" y="422.0"/>
      <point x="309.0" y="461.0"/>
      <point x="471" y="520" type="curve"/>
    </contour>
  </outline>
</glyph>
<glyph name="seven" format="2">
  <advance width="498"/>
  <unicode hex="0037"/>
  <outline>
    <contour>
      <point x="20" y="500" type="line"/>
      <point x="408" y="500" type="line"/>
      <point x="483" y="510" type="line"/>
      <point x="483" y="630" type="line"/>
      <point x="20" y="630" type="line"/>
    </contour>
    <contour>
      <point x="413" y="574" type="line"/>
      <point x="251.3273368683864" y="484.62815516326947"/>
      <point x="122.1593680783984" y="253.40918350235577"/>
      <point x="113" y="0" type="curve"/>
      <point x="267" y="0" type="line"/>
      <point x="276" y="256"/>
      <point x="332" y="371"/>
      <point x="483" y="510" type="curve"/>
    </contour>
  </outline>
</glyph>
<glyph name="eight" format="2">
  <advance width="605"/>
  <unicode hex="0038"/>
  <outline>
    <contour>
      <point x="302" y="105" type="curve" smooth="yes"/>
      <point x="241.14285714285714" y="105.0"/>
      <point x="212.0" y="139.0"/>
      <point x="212" y="185" type="curve" smooth="yes"/>
      <point x="212.0" y="231.0"/>
      <point x="240.28571428571428" y="265.0"/>
      <point x="302" y="265" type="curve" smooth="yes"/>
      <point x="362.95283018867923" y="265.0"/>
      <point x="393.0" y="231.0"/>
      <point x="393" y="185" type="curve" smooth="yes"/>
      <point x="393.0" y="139.0"/>
      <point x="362.95283018867923" y="105.0"/>
    </contour>
    <contour>
      <point x="302" y="-15" type="curve" smooth="yes"/>
      <point x="455.632183908046" y="-15.0"/>
      <point x="548.0" y="64.89743589743588"/>
      <point x="548" y="175" type="curve" smooth="yes"/>
      <point x="548.0" y="287.02777777777777"/>
      <point x="448.0" y="360.0"/>
      <point x="302" y="360" type="curve" smooth="yes"/>
      <point x="156.0" y="360.0"/>
      <point x="57.0" y="287.02777777777777"/>
      <point x="57" y="175" type="curve" smooth="yes"/>
      <point x="57.0" y="64.89743589743588"/>
      <point x="148.40384615384616" y="-15.0"/>
    </contour>
    <contour>
      <point x="302" y="384" type="curve" smooth="yes"/>
      <point x="253.41176470588235" y="384.0"/>
      <point x="232.0" y="414.0"/>
      <point x="232" y="454" type="curve" smooth="yes"/>
      <point x="232.0" y="494.0"/>
      <point x="254.23529411764707" y="524.0"/>
      <point x="302" y="524" type="curve" smooth="yes"/>
      <point x="349.8837209302326" y="524.0"/>
      <point x="373.0" y="494.0"/>
      <point x="373" y="454" type="curve" smooth="yes"/>
      <point x="373.0" y="414.0"/>
      <point x="350.70930232558135" y="384.0"/>
    </contour>
    <contour>
      <point x="302" y="289" type="curve" smooth="yes"/>
      <point x="436.0" y="289.0"/>
      <point x="528.0" y="367.4848484848485"/>
      <point x="528" y="464" type="curve" smooth="yes"/>
      <point x="528.0" y="566.3157894736842"/>
      <point x="443.60165975103735" y="644.0"/>
      <point x="302" y="644" type="curve" smooth="yes"/>
      <point x="160.4375" y="644.0"/>
      <point x="77.0" y="566.3157894736842"/>
      <point x="77" y="464" type="curve" smooth="yes"/>
      <point x="77.0" y="367.4848484848485"/>
      <point x="168.0" y="289.0"/>
    </contour>
  </outline>
</glyph>
<glyph name="twosuperior" format="2">
  <advance width="375"/>
  <unicode hex="00B2"/>
  <outline>
    <contour>
      <point x="338.0" y="612.0" type="curve" smooth="yes"/>
      <point x="338.0" y="696.0"/>
      <point x="274.0" y="740.0"/>
      <point x="189.0" y="740.0" type="curve" smooth="yes"/>
      <point x="95.21794871794873" y="740.0"/>
      <point x="35" y="692"/>
      <point x="35" y="594" type="curve"/>
      <point x="148" y="594" type="line"/>
      <point x="148" y="627"/>
      <point x="160.64864864864865" y="643.0"/>
      <point x="187" y="643" type="curve" smooth="yes"/>
      <point x="206" y="643"/>
      <point x="216" y="632"/>
      <point x="216" y="615" type="curve" smooth="yes"/>
      <point x="216.0" y="538.0"/>
      <point x="27" y="510"/>
      <point x="27" y="361" type="curve" smooth="yes"/>
      <point x="27.0" y="330.0" type="line"/>
      <point x="342.0" y="330.0" type="line"/>
      <point x="342" y="429" type="line"/>
      <point x="74" y="429" type="line"/>
      <point x="151" y="377" type="line"/>
      <point x="151" y="387" type="line" smooth="yes"/>
      <point x="151" y="464"/>
      <point x="338.0" y="487.0"/>
    </contour>
  </outline>
</glyph>
<glyph name="threesuperior" format="2">
  <advance width="380"/>
  <unicode hex="00B3"/>
  <outline>
    <contour>
      <point x="124" y="529" type="line"/>
      <point x="189" y="529" type="line" smooth="yes"/>
      <point x="297.0" y="529"/>
      <point x="344.0" y="575.8598130841121"/>
      <point x="344" y="638" type="curve" smooth="yes"/>
      <point x="344" y="701"/>
      <point x="289" y="740"/>
      <point x="201" y="740" type="curve" smooth="yes"/>
      <point x="100" y="740"/>
      <point x="40" y="690"/>
      <point x="36" y="606" type="curve"/>
      <point x="147" y="606" type="line"/>
      <point x="147" y="641"/>
      <point x="164" y="651"/>
      <point x="186" y="651" type="curve" smooth="yes"/>
      <point x="212" y="651"/>
      <point x="222" y="635"/>
      <point x="222" y="616" type="curve" smooth="yes"/>
      <point x="222.0" y="593.8333333333334"/>
      <point x="211.0" y="578"/>
      <point x="179" y="578" type="curve" smooth="yes"/>
      <point x="124" y="578" type="line"/>
    </contour>
    <contour>
      <point x="124" y="551" type="line"/>
      <point x="124" y="494" type="line"/>
      <point x="173" y="494" type="line" smooth="yes"/>
      <point x="218.0" y="494"/>
      <point x="235.0" y="481.5652173913044"/>
      <point x="235" y="450" type="curve" smooth="yes"/>
      <point x="235.0" y="424.0"/>
      <point x="217.0487804878049" y="408.0"/>
      <point x="189" y="408" type="curve" smooth="yes"/>
      <point x="160.11111111111111" y="408.0"/>
      <point x="140" y="420"/>
      <point x="139" y="457" type="curve"/>
      <point x="28" y="457" type="line"/>
      <point x="32.000290473421295" y="373.9939726765082"/>
      <point x="88.82098765432097" y="320.0"/>
      <point x="195" y="320" type="curve" smooth="yes"/>
      <point x="290.96178343949043" y="320.0"/>
      <point x="357.0" y="372.0"/>
      <point x="357" y="443" type="curve" smooth="yes"/>
      <point x="357.0" y="510.74545454545455"/>
      <point x="301.0" y="551"/>
      <point x="173" y="551" type="curve" smooth="yes"/>
    </contour>
  </outline>
</glyph>
<glyph name="onesuperior" format="2">
  <advance width="337"/>
  <unicode hex="00B9"/>
  <outline>
    <contour>
      <point x="114" y="585" type="line"/>
      <point x="114" y="330" type="line"/>
      <point x="239" y="330" type="line"/>
      <point x="239" y="730" type="line"/>
      <point x="124" y="730" type="line"/>
      <point x="121" y="715" type="line" smooth="yes"/>
      <point x="115" y="687"/>
      <point x="98" y="675"/>
      <point x="66" y="675" type="curve" smooth="yes"/>
      <point x="39" y="675" type="line"/>
      <point x="39" y="585" type="line"/>
    </contour>
    <contour>
      <point x="35" y="330" type="line"/>
      <point x="317" y="330" type="line"/>
      <point x="317" y="426" type="line"/>
      <point x="35" y="426" type="line"/>
    </contour>
  </outline>
</glyph>
<glyph name=".notdef" format="2">
  <advance width="611"/>
  <outline>
    <contour>
      <point x="45" y="0" type="line"/>
      <point x="195" y="0" type="line"/>
      <point x="195" y="630" type="line"/>
      <point x="45" y="630" type="line"/>
    </contour>
    <contour>
      <point x="416" y="0" type="line"/>
      <point x="566" y="0" type="line"/>
      <point x="566" y="630" type="line"/>
      <point x="416" y="630" type="line"/>
    </contour>
    <contour>
      <point x="150" y="495" type="line"/>
      <point x="466" y="495" type="line"/>
      <point x="466" y="630" type="line"/>
      <point x="150" y="630" type="line"/>
    </contour>
    <contour>
      <point x="150" y="0" type="line"/>
      <point x="466" y="0" type="line"/>
      <point x="466" y="135" type="line"/>
      <point x="150" y="135" type="line"/>
    </contour>
  </outline>
</glyph>
<glyph name="eight.start" format="2">
  <advance width="577"/>
  <outline>
    <contour>
      <point x="378" y="-13" type="line" smooth="yes"/>
      <point x="197" y="-13"/>
      <point x="50" y="135"/>
      <point x="50" y="316" type="curve" smooth="yes"/>
      <point x="50" y="497"/>
      <point x="197" y="644"/>
      <point x="378" y="644" type="curve" smooth="yes"/>
      <point x="577" y="644" type="line"/>
      <point x="577" y="582" type="line"/>
      <point x="378" y="582" type="line" smooth="yes"/>
      <point x="232" y="582"/>
      <point x="113" y="462"/>
      <point x="113" y="316" type="curve" smooth="yes"/>
      <point x="113" y="169"/>
      <point x="232" y="50"/>
      <point x="378" y="50" type="curve" smooth="yes"/>
      <point x="577" y="50" type="line"/>
      <point x="577" y="-13" type="line"/>
    </contour>
    <component base="eightsuperior" xOffset="187" yOffset="-214"/>
  </outline>
</glyph>
<glyph name="eightsuperior" format="2">
  <advance width="418"/>
  <outline>
    <contour>
      <point x="209" y="402" type="curve" smooth="yes"/>
      <point x="179" y="402"/>
      <point x="163" y="423"/>
      <point x="163" y="451" type="curve" smooth="yes"/>
      <point x="163" y="478"/>
      <point x="178" y="498"/>
      <point x="209" y="498" type="curve" smooth="yes"/>
      <point x="240" y="498"/>
      <point x="255" y="478"/>
      <point x="255" y="451" type="curve" smooth="yes"/>
      <point x="255" y="423"/>
      <point x="240" y="402"/>
    </contour>
    <contour>
      <point x="209" y="320" type="curve" smooth="yes"/>
      <point x="312" y="320"/>
      <point x="373" y="372"/>
      <point x="373" y="442" type="curve" smooth="yes"/>
      <point x="373" y="512"/>
      <point x="307" y="557"/>
      <point x="209" y="557" type="curve" smooth="yes"/>
      <point x="111" y="557"/>
      <point x="45" y="512"/>
      <point x="45" y="442" type="curve" smooth="yes"/>
      <point x="45" y="372"/>
      <point x="106" y="320"/>
    </contour>
    <contour>
      <point x="209" y="574" type="curve" smooth="yes"/>
      <point x="181.36363636363637" y="574.0"/>
      <point x="171.0" y="591.0"/>
      <point x="171" y="615" type="curve" smooth="yes"/>
      <point x="171.0" y="639.0"/>
      <point x="183.66666666666666" y="657.0"/>
      <point x="209" y="657" type="curve" smooth="yes"/>
      <point x="234.33333333333334" y="657.0"/>
      <point x="247.0" y="639.0"/>
      <point x="247" y="615" type="curve" smooth="yes"/>
      <point x="247.0" y="591.0"/>
      <point x="234.33333333333334" y="574.0"/>
    </contour>
    <contour>
      <point x="209" y="515" type="curve" smooth="yes"/>
      <point x="299" y="515"/>
      <point x="361" y="564"/>
      <point x="361" y="623" type="curve" smooth="yes"/>
      <point x="361" y="689"/>
      <point x="304" y="739"/>
      <point x="209" y="739" type="curve" smooth="yes"/>
      <point x="114" y="739"/>
      <point x="58" y="689"/>
      <point x="58" y="623" type="curve" smooth="yes"/>
      <point x="58" y="564"/>
      <point x="119" y="515"/>
    </contour>
  </outline>
</glyph>
<glyph name="five.mid" format="2">
  <advance width="421"/>
  <outline>
    <contour>
      <point x="-5" y="644" type="line"/>
      <point x="426" y="644" type="line"/>
      <point x="426" y="582" type="line"/>
      <point x="-5" y="582" type="line"/>
    </contour>
    <contour>
      <point x="-5" y="50" type="line"/>
      <point x="426" y="50" type="line"/>
      <point x="426" y="-12" type="line"/>
      <point x="-5" y="-12" type="line"/>
    </contour>
    <component base="fivesuperior" xOffset="3" yOffset="-208"/>
  </outline>
</glyph>
<glyph name="fivesuperior" format="2">
  <advance width="411"/>
  <outline>
    <contour>
      <point x="103.0" y="634.0" type="line"/>
      <point x="341.0" y="634.0" type="line"/>
      <point x="341" y="730" type="line"/>
      <point x="103.0" y="730.0" type="line"/>
    </contour>
    <contour>
      <point x="144" y="547" type="curve"/>
      <point x="170.0" y="477.0" type="line"/>
      <point x="177.0" y="498.0"/>
      <point x="192.0" y="505.0"/>
      <point x="210.0" y="505.0" type="curve" smooth="yes"/>
      <point x="237.0" y="505.0"/>
      <point x="253.0" y="488.0"/>
      <point x="253.0" y="461.0" type="curve" smooth="yes"/>
      <point x="253.0" y="435.0"/>
      <point x="239.0" y="416.0"/>
      <point x="210.0" y="416.0" type="curve" smooth="yes"/>
      <point x="189.0" y="416.0"/>
      <point x="174.0" y="426.0"/>
      <point x="171.0" y="448.0" type="curve"/>
      <point x="47" y="448" type="line"/>
      <point x="64" y="348"/>
      <point x="131" y="320"/>
      <point x="210" y="320" type="curve" smooth="yes"/>
      <point x="307.0" y="320.0"/>
      <point x="376" y="379"/>
      <point x="376" y="463" type="curve" smooth="yes"/>
      <point x="376.0" y="540.2313432835821"/>
      <point x="326" y="594"/>
      <point x="247" y="594" type="curve" smooth="yes"/>
      <point x="202" y="594"/>
      <point x="176.8277147351705" y="579.8277147351705"/>
    </contour>
    <contour>
      <point x="60.0" y="477.0" type="line"/>
      <point x="170.0" y="477.0" type="line"/>
      <point x="170.0" y="541.0" type="line"/>
      <point x="201.0" y="730.0" type="line"/>
      <point x="95.0" y="730.0" type="line"/>
    </contour>
  </outline>
</glyph>
<glyph name="four.end" format="2">
  <advance width="577"/>
  <outline>
    <contour>
      <point x="199" y="644" type="line" smooth="yes"/>
      <point x="380" y="644"/>
      <point x="527" y="496"/>
      <point x="527" y="315" type="curve" smooth="yes"/>
      <point x="527.0" y="135"/>
      <point x="380" y="-12"/>
      <point x="199" y="-12" type="curve" smooth="yes"/>
      <point x="-5" y="-12" type="line"/>
      <point x="-5" y="50" type="line"/>
      <point x="199" y="50" type="line" smooth="yes"/>
      <point x="345" y="50"/>
      <point x="464.0" y="170"/>
      <point x="464" y="315" type="curve" smooth="yes"/>
      <point x="464.0" y="463"/>
      <point x="345" y="582"/>
      <point x="199" y="582" type="curve" smooth="yes"/>
      <point x="-5" y="582" type="line"/>
      <point x="-5" y="644" type="line"/>
    </contour>
    <component base="foursuperior" xOffset="-9" yOffset="-208"/>
  </outline>
</glyph>
<glyph name="foursuperior" format="2">
  <advance width="421"/>
  <outline>
    <contour>
      <point x="230" y="730" type="line"/>
      <point x="34" y="491" type="line"/>
      <point x="34.0" y="404.0" type="line"/>
      <point x="408.0" y="404.0" type="line"/>
      <point x="408" y="495" type="line"/>
      <point x="110" y="495" type="line"/>
      <point x="136" y="471" type="line"/>
      <point x="276" y="655" type="line"/>
    </contour>
    <contour>
      <point x="230" y="330" type="line"/>
      <point x="345.0" y="330.0" type="line"/>
      <point x="345.0" y="730.0" type="line"/>
      <point x="230" y="730" type="line"/>
    </contour>
  </outline>
</glyph>
<glyph name="nine.mid" format="2">
  <advance width="401"/>
  <outline>
    <contour>
      <point x="-5" y="644" type="line"/>
      <point x="406" y="644" type="line"/>
      <point x="406" y="582" type="line"/>
      <point x="-5" y="582" type="line"/>
    </contour>
    <contour>
      <point x="-5" y="50" type="line"/>
      <point x="406" y="50" type="line"/>
      <point x="406" y="-12" type="line"/>
      <point x="-5" y="-12" type="line"/>
    </contour>
    <component base="ninesuperior" xOffset="15" yOffset="-213"/>
  </outline>
</glyph>
<glyph name="ninesuperior" format="2">
  <advance width="385"/>
  <outline>
    <contour>
      <point x="185" y="545" type="curve" smooth="yes"/>
      <point x="158" y="545"/>
      <point x="136" y="565"/>
      <point x="136" y="597" type="curve" smooth="yes"/>
      <point x="136" y="629"/>
      <point x="159" y="652"/>
      <point x="189" y="652" type="curve" smooth="yes"/>
      <point x="217" y="652"/>
      <point x="238" y="630"/>
      <point x="238" y="598" type="curve" smooth="yes"/>
      <point x="238" y="567"/>
      <point x="213" y="545"/>
    </contour>
    <contour>
      <point x="137" y="320" type="line"/>
      <point x="272" y="386"/>
      <point x="350" y="473"/>
      <point x="350" y="576" type="curve" smooth="yes"/>
      <point x="350" y="683"/>
      <point x="282" y="740"/>
      <point x="190" y="740" type="curve" smooth="yes"/>
      <point x="101" y="740"/>
      <point x="27" y="680"/>
      <point x="27" y="598" type="curve" smooth="yes"/>
      <point x="27" y="526"/>
      <point x="80" y="472"/>
      <point x="158" y="472" type="curve" smooth="yes"/>
      <point x="202" y="472"/>
      <point x="248" y="490"/>
      <point x="265" y="528" type="curve"/>
      <point x="240" y="502" type="line"/>
      <point x="200" y="468"/>
      <point x="154" y="436"/>
      <point x="85" y="401" type="curve"/>
    </contour>
  </outline>
</glyph>
<glyph name="one.circled" format="2">
  <advance width="757"/>
  <outline>
    <contour>
      <point x="378" y="-13" type="curve" smooth="yes"/>
      <point x="197" y="-13"/>
      <point x="50" y="135"/>
      <point x="50" y="316" type="curve" smooth="yes"/>
      <point x="50" y="497"/>
      <point x="197" y="644"/>
      <point x="378" y="644" type="curve" smooth="yes"/>
      <point x="559" y="644"/>
      <point x="707" y="497"/>
      <point x="707" y="316" type="curve" smooth="yes"/>
      <point x="707" y="135"/>
      <point x="559" y="-13"/>
    </contour>
    <contour>
      <point x="378" y="50" type="curve" smooth="yes"/>
      <point x="525" y="50"/>
      <point x="645" y="169"/>
      <point x="645" y="316" type="curve" smooth="yes"/>
      <point x="645" y="462"/>
      <point x="525" y="582"/>
      <point x="378" y="582" type="curve" smooth="yes"/>
      <point x="232" y="582"/>
      <point x="113" y="462"/>
      <point x="113" y="316" type="curve" smooth="yes"/>
      <point x="113" y="169"/>
      <point x="232" y="50"/>
    </contour>
    <component base="onesuperior" xOffset="203" yOffset="-206"/>
  </outline>
</glyph>
<glyph name="one.end" format="2">
  <advance width="577"/>
  <outline>
    <contour>
      <point x="199" y="644" type="line" smooth="yes"/>
      <point x="380" y="644"/>
      <point x="527" y="496"/>
      <point x="527" y="315" type="curve" smooth="yes"/>
      <point x="527" y="134"/>
      <point x="380" y="-13"/>
      <point x="199" y="-13" type="curve" smooth="yes"/>
      <point x="0" y="-13" type="line"/>
      <point x="0" y="49" type="line"/>
      <point x="199" y="49" type="line" smooth="yes"/>
      <point x="345" y="49"/>
      <point x="464" y="169"/>
      <point x="464" y="315" type="curve" smooth="yes"/>
      <point x="464" y="462"/>
      <point x="345" y="581"/>
      <point x="199" y="581" type="curve" smooth="yes"/>
      <point x="0" y="581" type="line"/>
      <point x="0" y="644" type="line"/>
    </contour>
    <component base="onesuperior" xOffset="33" yOffset="-206"/>
  </outline>
</glyph>
<glyph name="one.mid" format="2">
  <advance width="401"/>
  <outline>
    <contour>
      <point x="-5" y="644" type="line"/>
      <point x="406" y="644" type="line"/>
      <point x="406" y="582" type="line"/>
      <point x="-5" y="582" type="line"/>
    </contour>
    <contour>
      <point x="-5" y="50" type="line"/>
      <point x="406" y="50" type="line"/>
      <point x="406" y="-12" type="line"/>
      <point x="-5" y="-12" type="line"/>
    </contour>
    <component base="onesuperior" xOffset="38" yOffset="-206"/>
  </outline>
</glyph>
<glyph name="seven.mid" format="2">
  <advance width="376"/>
  <outline>
    <contour>
      <point x="-5" y="644" type="line"/>
      <point x="381" y="644" type="line"/>
      <point x="381" y="582" type="line"/>
      <point x="-5" y="582" type="line"/>
    </contour>
    <contour>
      <point x="-5" y="50" type="line"/>
      <point x="381" y="50" type="line"/>
      <point x="381" y="-12" type="line"/>
      <point x="-5" y="-12" type="line"/>
    </contour>
    <component base="sevensuperior" xOffset="30" yOffset="-219"/>
  </outline>
</glyph>
<glyph name="sevensuperior" format="2">
  <advance width="340"/>
  <outline>
    <contour>
      <point x="17.0" y="634.0" type="line"/>
      <point x="280.0" y="634.0" type="line"/>
      <point x="328.0" y="641.0" type="line"/>
      <point x="328.0" y="730.0" type="line"/>
      <point x="17.0" y="730.0" type="line"/>
    </contour>
    <contour>
      <point x="267.0" y="688.0" type="line"/>
      <point x="162.0" y="630.0"/>
      <point x="76.0" y="471.0"/>
      <point x="67.0" y="330.0" type="curve"/>
      <point x="189.0" y="330.0" type="line"/>
      <point x="198.0" y="477.0"/>
      <point x="234.0" y="554.0"/>
      <point x="328.0" y="641.0" type="curve"/>
    </contour>
  </outline>
</glyph>
<glyph name="three.mid" format="2">
  <advance width="411"/>
  <outline>
    <contour>
      <point x="0" y="644" type="line"/>
      <point x="411" y="644" type="line"/>
      <point x="411" y="582" type="line"/>
      <point x="0" y="582" type="line"/>
    </contour>
    <contour>
      <point x="0" y="50" type="line"/>
      <point x="411" y="50" type="line"/>
      <point x="411" y="-13" type="line"/>
      <point x="0" y="-13" type="line"/>
    </contour>
    <component base="threesuperior" xOffset="13" yOffset="-211"/>
  </outline>
</glyph>
<glyph name="two.mid" format="2">
  <advance width="421"/>
  <outline>
    <contour>
      <point x="0" y="644" type="line"/>
      <point x="421" y="644" type="line"/>
      <point x="421" y="582" type="line"/>
      <point x="0" y="582" type="line"/>
    </contour>
    <contour>
      <point x="0" y="50" type="line"/>
      <point x="421" y="50" type="line"/>
      <point x="421" y="-13" type="line"/>
      <point x="0" y="-13" type="line"/>
    </contour>
    <component base="twosuperior" xOffset="22" yOffset="-206"/>
  </outline>
</glyph>
<glyph name="two.start" format="2">
  <advance width="577"/>
  <outline>
    <contour>
      <point x="378" y="-12" type="line" smooth="yes"/>
      <point x="197" y="-12"/>
      <point x="50.0" y="135.0"/>
      <point x="50.0" y="316.0" type="curve" smooth="yes"/>
      <point x="50.0" y="497.0"/>
      <point x="197" y="644"/>
      <point x="378" y="644" type="curve" smooth="yes"/>
      <point x="577" y="644" type="line"/>
      <point x="577" y="582" type="line"/>
      <point x="378" y="582" type="line" smooth="yes"/>
      <point x="232" y="582"/>
      <point x="113.0" y="462.0"/>
      <point x="113.0" y="316.0" type="curve" smooth="yes"/>
      <point x="113.0" y="169.0"/>
      <point x="232" y="50"/>
      <point x="378" y="50" type="curve" smooth="yes"/>
      <point x="577" y="50" type="line"/>
      <point x="577" y="-12" type="line"/>
    </contour>
    <component base="twosuperior" xOffset="213" yOffset="-206"/>
  </outline>
</glyph>
<glyph name="zero.mid" format="2">
  <advance width="411"/>
  <outline>
    <contour>
      <point x="-5" y="644" type="line"/>
      <point x="416" y="644" type="line"/>
      <point x="416" y="582" type="line"/>
      <point x="-5" y="582" type="line"/>
    </contour>
    <contour>
      <point x="-5" y="50" type="line"/>
      <point x="416" y="50" type="line"/>
      <point x="416" y="-12" type="line"/>
      <point x="-5" y="-12" type="line"/>
    </contour>
    <component base="zerosuperior" xOffset="-1" yOffset="-206"/>
  </outline>
</glyph>
<glyph name="zerosuperior" format="2">
  <advance width="413"/>
  <outline>
    <contour>
      <point x="206" y="425" type="curve" smooth="yes"/>
      <point x="177" y="425"/>
      <point x="149" y="441"/>
      <point x="149" y="530" type="curve" smooth="yes"/>
      <point x="149" y="619"/>
      <point x="177" y="635"/>
      <point x="206" y="635" type="curve" smooth="yes"/>
      <point x="236" y="635"/>
      <point x="264" y="619"/>
      <point x="264" y="530" type="curve" smooth="yes"/>
      <point x="264" y="441"/>
      <point x="236" y="425"/>
    </contour>
    <contour>
      <point x="206" y="320" type="curve" smooth="yes"/>
      <point x="314.9230769230769" y="320.0"/>
      <point x="383.0" y="397.0"/>
      <point x="383" y="530" type="curve" smooth="yes"/>
      <point x="383.0" y="663.0"/>
      <point x="313.9505494505495" y="740.0"/>
      <point x="206" y="740" type="curve" smooth="yes"/>
      <point x="98.06629834254144" y="740.0"/>
      <point x="30.0" y="663.0"/>
      <point x="30" y="530" type="curve" smooth="yes"/>
      <point x="30.0" y="397.0"/>
      <point x="97.09392265193371" y="320.0"/>
    </contour>
  </outline>
</glyph>
